<svg id="Layer_1" data-name="Layer 1" xmlns="http://www.w3.org/2000/svg" viewBox="0 0 392.32 79.36"><defs><style>.cls-1{fill:#08c;}.cls-2{fill:#52d3ff;}.cls-3{fill:#005782;}</style></defs><path class="cls-1" d="M1220.51,665.73l14.14,8.24,19-10.56L1272.17,674l14.18-8.32-29.24-15.83a7.36,7.36,0,0,0-7,0Z" transform="translate(-1217.26 -648.93)"/><path class="cls-2" d="M1217.26,672.43l13.93,7.9V701l18.35,10.91v16.38l-27.3-15.81a10,10,0,0,1-5-8.65Z" transform="translate(-1217.26 -648.93)"/><path class="cls-3" d="M1289.6,672.43l-13.93,7.9V701l-18.35,10.91v16.38l27.3-15.81a10,10,0,0,0,5-8.65Z" transform="translate(-1217.26 -648.93)"/><path class="cls-3" d="M1267.89,684.62V694a4.46,4.46,0,0,1-2.05,3.76l-8.52,5.53v-9.49a4.52,4.52,0,0,1,2.08-3.8Z" transform="translate(-1217.26 -648.93)"/><path class="cls-2" d="M1239,684.62V694a4.48,4.48,0,0,0,2,3.76l8.53,5.53v-9.49a4.51,4.51,0,0,0-2.09-3.8Z" transform="translate(-1217.26 -648.93)"/><path class="cls-1" d="M1252,673.29l-9.27,4.83,9.24,5a3.16,3.16,0,0,0,3,0l9.24-4.94-8.94-4.87A3.47,3.47,0,0,0,1252,673.29Z" transform="translate(-1217.26 -648.93)"/><path d="M1300.33,706.74V673.13h26.89a6.34,6.34,0,0,1,4.73,2,6.47,6.47,0,0,1,2,4.73v6.72a6.41,6.41,0,0,1-2,4.78,6.53,6.53,0,0,1-4.73,1.94l13.45,13.45h-10.08l-20.17-20.17h13.44a3.3,3.3,0,0,0,3.36-3.36,3.4,3.4,0,0,0-3.36-3.36h-16.8v26.89Z" transform="translate(-1217.26 -648.93)"/><path d="M1337.31,706.74V673.13h33.61v6.72H1344v6.72h20.17v6.72H1344V700h26.89v6.72Z" transform="translate(-1217.26 -648.93)"/><path d="M1381,706.74a6.51,6.51,0,0,1-4.78-1.94,6.61,6.61,0,0,1-2-4.78V679.85a6.43,6.43,0,0,1,2-4.73,6.51,6.51,0,0,1,4.78-2h20.16a6.35,6.35,0,0,1,4.73,2,6.47,6.47,0,0,1,2,4.73v3.36h-6.73a3.4,3.4,0,0,0-3.36-3.36h-13.44a3.31,3.31,0,0,0-3.36,3.36v13.45a3.23,3.23,0,0,0,3.36,3.36h13.44a3.35,3.35,0,0,0,2.37-.95,3.29,3.29,0,0,0,1-2.41v-3.37h-13.44v-6.72h20.17V700a6.42,6.42,0,0,1-2,4.78,6.57,6.57,0,0,1-4.73,1.94Z" transform="translate(-1217.26 -648.93)"/><path d="M1411.26,706.74V673.13h33.61v6.72H1418v6.72h20.17v6.72H1418V700h26.89v6.72Z" transform="translate(-1217.26 -648.93)"/><path d="M1448.23,706.74V673.13h26.89a6.35,6.35,0,0,1,4.73,2,6.47,6.47,0,0,1,2,4.73V700a6.42,6.42,0,0,1-2,4.78,6.57,6.57,0,0,1-4.73,1.94Zm23.53-6.72a3.35,3.35,0,0,0,2.37-.95,3.29,3.29,0,0,0,1-2.41V683.21a3.4,3.4,0,0,0-3.36-3.36H1455V700Z" transform="translate(-1217.26 -648.93)"/><path d="M1485.21,706.74V673.13h6.72v33.61Z" transform="translate(-1217.26 -648.93)"/><path d="M1508.74,706.74V679.85h-13.45v-6.72h33.61v6.72h-13.44v26.89Z" transform="translate(-1217.26 -648.93)"/><path d="M1532.27,706.74V673.13H1539l13.44,13.44,13.45-13.44h6.72v33.61h-6.72V683.21l-13.45,13.45L1539,683.21v23.53Z" transform="translate(-1217.26 -648.93)"/><path d="M1582.69,706.74a6.49,6.49,0,0,1-4.78-1.94,6.61,6.61,0,0,1-2-4.78V679.85a6.43,6.43,0,0,1,2-4.73,6.51,6.51,0,0,1,4.78-2h20.16a6.35,6.35,0,0,1,4.73,2,6.47,6.47,0,0,1,2,4.73v3.36h-6.73a3.4,3.4,0,0,0-3.36-3.36h-13.44a3.31,3.31,0,0,0-3.36,3.36v13.45a3.23,3.23,0,0,0,3.36,3.36h13.44a3.35,3.35,0,0,0,2.37-.95,3.29,3.29,0,0,0,1-2.41h6.73V700a6.42,6.42,0,0,1-2,4.78,6.57,6.57,0,0,1-4.73,1.94Z" transform="translate(-1217.26 -648.93)"/></svg>